<svg width="30" height="30" viewBox="0 0 30 30" fill="none" xmlns="http://www.w3.org/2000/svg">
<path fill-rule="evenodd" clip-rule="evenodd" d="M0.78 8.7345C0 10.155 0 11.8725 0 15.3045V17.5875C0 23.4375 -1.78814e-07 26.364 1.758 28.182C3.516 30 6.3435 30 12 30H18C23.6565 30 26.4855 30 28.242 28.182C29.9985 26.364 30 23.439 30 17.5875V15.306C30 11.8725 30 10.1565 29.22 8.7345C28.443 7.311 27.0195 6.429 24.174 4.662L21.174 2.8005C18.1665 0.933 16.662 0 15 0C13.338 0 11.835 0.933 8.826 2.8005L5.826 4.662C2.9805 6.429 1.5585 7.311 0.78 8.7345ZM13.875 24C13.875 24.2984 13.9935 24.5845 14.2045 24.7955C14.4155 25.0065 14.7016 25.125 15 25.125C15.2984 25.125 15.5845 25.0065 15.7955 24.7955C16.0065 24.5845 16.125 24.2984 16.125 24V19.5C16.125 19.2016 16.0065 18.9155 15.7955 18.7045C15.5845 18.4935 15.2984 18.375 15 18.375C14.7016 18.375 14.4155 18.4935 14.2045 18.7045C13.9935 18.9155 13.875 19.2016 13.875 19.5V24Z" fill="#E72E2E"/>
</svg>
